<?xml version="1.0" encoding="iso-8859-1"?>
<!-- Generator: Adobe Illustrator 19.0.0, SVG Export Plug-In . SVG Version: 6.00 Build 0)  -->
<svg version="1.1" id="Capa_1" xmlns="http://www.w3.org/2000/svg" xmlns:xlink="http://www.w3.org/1999/xlink" x="0px" y="0px"
	 viewBox="0 0 360 360" style="enable-background:new 0 0 360 360;" xml:space="preserve">
<g id="XMLID_85_">
	<path id="XMLID_86_" d="M344.71,126.996h-49.42V77.834L212.267,0H15.29v360h280v-50.277h49.42V126.996z M314.71,279.723h-210
		V156.996h210V279.723z"/>
	<path id="XMLID_89_" d="M137.171,224.809h14.448c2.808,0,5.388-0.573,7.74-1.72c2.35-1.146,4.356-2.666,6.02-4.558
		c1.662-1.892,2.952-4.055,3.87-6.493c0.916-2.437,1.376-4.945,1.376-7.525c0-2.464-0.488-4.915-1.462-7.353
		c-0.976-2.436-2.322-4.614-4.042-6.536c-1.72-1.92-3.77-3.468-6.149-4.644c-2.38-1.175-4.975-1.763-7.783-1.763h-25.886v61.06
		h11.868V224.809z M137.171,194.623h13.244c1.032,0,2.049,0.215,3.053,0.645c1.002,0.43,1.877,1.075,2.623,1.935
		c0.745,0.86,1.347,1.907,1.806,3.139c0.458,1.233,0.688,2.623,0.688,4.171c0,3.04-0.731,5.448-2.193,7.224
		c-1.462,1.778-3.283,2.666-5.461,2.666h-13.76V194.623z"/>
	<polygon id="XMLID_92_" points="190.748,206.147 222.138,245.277 231.769,245.277 231.769,184.303 219.902,184.303 
		219.902,224.293 188.081,184.217 178.879,184.217 178.879,245.277 190.748,245.277 	"/>
	<path id="XMLID_93_" d="M249.355,236.677c2.608,2.81,5.676,5.018,9.202,6.622c3.526,1.606,7.295,2.408,11.309,2.408
		c6.478,0,12.154-2.437,17.028-7.31v6.88h9.804v-31.39h-22.102v8.686h12.298v4.3c-4.76,5.562-10.092,8.342-15.996,8.342
		c-2.58,0-4.975-0.529-7.181-1.591c-2.208-1.06-4.115-2.508-5.719-4.343c-1.606-1.834-2.868-3.999-3.784-6.493
		c-0.918-2.494-1.376-5.174-1.376-8.041c0-2.753,0.415-5.36,1.247-7.826c0.83-2.464,2.006-4.644,3.526-6.536
		c1.519-1.892,3.354-3.382,5.504-4.472c2.15-1.089,4.515-1.634,7.095-1.634c3.268,0,6.292,0.804,9.073,2.408
		c2.78,1.605,4.945,3.928,6.493,6.966l8.858-6.536c-2.064-4.07-5.147-7.31-9.245-9.718c-4.1-2.408-9.017-3.612-14.749-3.612
		c-4.243,0-8.17,0.817-11.782,2.451c-3.612,1.634-6.751,3.842-9.417,6.622c-2.666,2.782-4.76,6.02-6.278,9.718
		c-1.52,3.698-2.279,7.641-2.279,11.825c0,4.416,0.759,8.529,2.279,12.341C244.682,230.558,246.746,233.869,249.355,236.677z"/>
</g>
<g>
</g>
<g>
</g>
<g>
</g>
<g>
</g>
<g>
</g>
<g>
</g>
<g>
</g>
<g>
</g>
<g>
</g>
<g>
</g>
<g>
</g>
<g>
</g>
<g>
</g>
<g>
</g>
<g>
</g>
</svg>
